<svg xmlns="http://www.w3.org/2000/svg" width="281.25" height="278.64" viewBox="0 0 281.25 278.64">
  <defs>
    <style>
      .cls-1 {
        fill: #ec6b18;
      }

      .cls-2 {
        fill: #bd1932;
      }

      .cls-3 {
        fill: #f4b81d;
      }

      .cls-4 {
        fill: #24a7df;
      }

      .cls-5 {
        fill: #dc3819;
      }

      .cls-6 {
        fill: #e9b41e;
      }

      .cls-7 {
        fill: #e41a1b;
      }

      .cls-8 {
        fill: none;
      }

      .cls-9 {
        fill: #a63a8f;
      }

      .cls-10 {
        fill: #09448f;
      }

      .cls-11 {
        fill: #0b65ac;
      }

      .cls-12 {
        fill: #4aa83b;
      }

      .cls-13 {
        fill: #e9a11b;
      }

      .cls-14 {
        fill: #f39e1c;
      }

      .cls-15 {
        fill: #df1b76;
      }

      .cls-16 {
        fill: #40af47;
      }

      .cls-17 {
        fill: #dc1b22;
      }

      .cls-18 {
        fill: #54b33f;
      }

      .cls-19 {
        fill: #2381c4;
      }

      .cls-20 {
        fill: #139383;
      }

      .cls-21 {
        fill: #707272;
      }
    </style>
  </defs>
  <g id="圖層_2" data-name="圖層 2">
    <g id="圖層_1-2" data-name="圖層 1">
      <g>
        <circle id="椭圆_195" data-name="椭圆 195" class="cls-1" cx="266.47" cy="139.3" r="14.78"/>
        <circle id="椭圆_196" data-name="椭圆 196" class="cls-2" cx="261.4" cy="103.86" r="14.78"/>
        <circle id="椭圆_197" data-name="椭圆 197" class="cls-3" cx="246.51" cy="71.27" r="14.78"/>
        <circle id="椭圆_198" data-name="椭圆 198" class="cls-4" cx="223.06" cy="44.23" r="14.78"/>
        <circle id="椭圆_199" data-name="椭圆 199" class="cls-5" cx="192.93" cy="24.86" r="14.78"/>
        <circle id="椭圆_200" data-name="椭圆 200" class="cls-6" cx="88.38" cy="24.84" r="14.78"/>
        <circle id="椭圆_201" data-name="椭圆 201" class="cls-7" cx="58.26" cy="44.21" r="14.78"/>
        <circle id="椭圆_202" data-name="椭圆 202" class="cls-8" cx="34.79" cy="71.29" r="14.78"/>
        <circle id="椭圆_203" data-name="椭圆 203" class="cls-8" cx="19.95" cy="103.86" r="14.78"/>
        <circle id="椭圆_204" data-name="椭圆 204" class="cls-8" cx="19.9" cy="174.73" r="14.78"/>
        <circle id="椭圆_205" data-name="椭圆 205" class="cls-9" cx="34.59" cy="207.08" r="14.76"/>
        <circle id="椭圆_206" data-name="椭圆 206" class="cls-10" cx="58.26" cy="234.36" r="14.78"/>
        <circle id="椭圆_207" data-name="椭圆 207" class="cls-11" cx="88.4" cy="253.75" r="14.78"/>
        <circle id="椭圆_208" data-name="椭圆 208" class="cls-12" cx="192.88" cy="253.8" r="14.78"/>
        <circle id="椭圆_209" data-name="椭圆 209" class="cls-13" cx="223.04" cy="234.43" r="14.78"/>
        <circle id="椭圆_210" data-name="椭圆 210" class="cls-14" cx="246.51" cy="207.35" r="14.78"/>
        <circle id="椭圆_211" data-name="椭圆 211" class="cls-15" cx="261.38" cy="174.77" r="14.78"/>
        <circle id="椭圆_212" data-name="椭圆 212" class="cls-16" cx="122.72" cy="14.78" r="14.78"/>
        <circle id="椭圆_213" data-name="椭圆 213" class="cls-17" cx="158.56" cy="14.78" r="14.78"/>
        <circle id="椭圆_214" data-name="椭圆 214" class="cls-18" cx="122.72" cy="263.86" r="14.78"/>
        <circle id="椭圆_215" data-name="椭圆 215" class="cls-19" cx="158.56" cy="263.86" r="14.78"/>
        <path id="路径_16176" data-name="路径 16176" class="cls-20" d="M8.38,87.75a4.57,4.57,0,0,0-6.15,2h0a4.51,4.51,0,0,0-.5,2.47,8.53,8.53,0,0,0,2.7,6.5A9,9,0,0,1,3,106.61a4.52,4.52,0,0,0,0,3S.19,112.22,7,123a2.22,2.22,0,0,0,1.18,2.9l.17.07a2.53,2.53,0,0,0,1,.13s2.22-.33,3.39,9.4c0,0-.39.73.7,1.35,0,0-1.24,1.2,3.06,5.41a4.05,4.05,0,0,1,1,2.46,5.6,5.6,0,0,0,1.7,2.21,5.16,5.16,0,0,0,1.58,4,3.29,3.29,0,0,1,1.44,1.76s-.95,1,2.42,2.66a12,12,0,0,1,2.66,5.49.82.82,0,0,0,1,.43A5.23,5.23,0,0,0,29.7,164s-1.1.65,1.09,2.71c0,0,2.77,6.51,4.43,6.82a5.9,5.9,0,0,0,3.22,6.12s1.48,5.28,4.3,4.43a83.72,83.72,0,0,1,9.36,4.85A5.44,5.44,0,0,0,54.79,192s-.66,1.84,2.83,3.54a6.8,6.8,0,0,0,3,2.22,2,2,0,0,0,1.75,2.2.39.39,0,0,1,.15,0H63a17.32,17.32,0,0,1,7.94-1,43.44,43.44,0,0,0,10.37,1.8,3.85,3.85,0,0,1,2.52,1.1,2.41,2.41,0,0,0,3.06,0,3.46,3.46,0,0,1,2.81.65s1.55.86,1.55-.71a4.41,4.41,0,0,0,4-2.43s2.22,0,2.22-1.4c0,0,.44,3.15,1.88-.35a68.92,68.92,0,0,1,7.49-2.57,3.19,3.19,0,0,0,4,.51,29.37,29.37,0,0,1,7.49,2.84c1.47,1.31,1.87,2.22,3.3,1.4,0,0,5.56,3.32,3.7-1.24,0,0-.93-1.31,2.81-2.35,0,0,1.46-.26,1.37-1.11,0,0,.33-1.55-1.93-.79s-2.22-.55-2.22-.55a4,4,0,0,0-2.21-4s-5.46-3.26-7.27-4a8.52,8.52,0,0,1-5.63-4.43,6.17,6.17,0,0,1-2.9-2.41c-.79-1.56-5.88-8.29-5.88-8.29a4,4,0,0,1,0-3,4.84,4.84,0,0,0-1.08-3,2.11,2.11,0,0,0,0-2.22c-.91-1-3.37-1.26-3-3.16a16.09,16.09,0,0,0-3.1-6.64,4,4,0,0,0-2.06-2.64,5.39,5.39,0,0,1-1.5-4,24.62,24.62,0,0,1-4.8-3.69,13.83,13.83,0,0,0-4.72-5.69,41.56,41.56,0,0,1-3.06-3.17,10.47,10.47,0,0,0-3.46-2.46,71.59,71.59,0,0,1-6.91-6.47c-2-2.41-3.08-1.75-4.79-4s-2.21-.2-4.18-4.77a3.7,3.7,0,0,0-2.64-.68c-1.37.48-1.06-2.07-2.48-3.17a5.12,5.12,0,0,1-2.85-5.44s.75-1.64-5.35-5.41a13.71,13.71,0,0,1-1.58-3.46c0-.75,0-1.91-1.9-1.55a3.75,3.75,0,0,0-4.19-3.15,3.39,3.39,0,0,0-.82.2,25.18,25.18,0,0,0-6.65-2s-6.42-5.72-5-10.48c0,0,.69-1.2-1-1.82,0,0-1.08-.75-1.95,1.76,0,0-.55.95-2.21-.2,0,0-2.55-2.71-4,0A5.56,5.56,0,0,1,13.8,83.8a9.7,9.7,0,0,0-2.28,2.63C11.08,88,9.62,84.21,8.38,87.75Z"/>
        <path id="路径_16177" data-name="路径 16177" class="cls-20" d="M194.72,169.74a8.16,8.16,0,0,1-9.42.6,21.83,21.83,0,0,0-3.26-1.59A18.75,18.75,0,0,0,165,171.6c-3.21-7.62-12.68-16.95-16.4-10.54a24.52,24.52,0,0,0-1.79,9.95c-.22,2.54-.42,5.05-.87,7.55a17.71,17.71,0,0,1-.88,3.53,4.42,4.42,0,0,0-.38.79c-1.24,1.35-4-.56-5.36-1.46A22.68,22.68,0,0,1,133,174c-1-1.79-1.77-3.74-2.68-5.56-1.7-3.18-3.45-6.31-5.25-9.42a111,111,0,0,0-15.52-21.4c-2.8-2.88-6-5.47-8.73-8.4a9.06,9.06,0,0,1-3.1-4.85,7.16,7.16,0,0,1,3.16-4c2.55-2.21,6.2-4.43,5.72-8.31a10.11,10.11,0,0,0-6.15-6.54,37.79,37.79,0,0,0-12.82-3.29,48.62,48.62,0,0,0-11.93.39A10.7,10.7,0,0,1,72.21,99C71,97.32,70,95.53,68.77,93.87A100.41,100.41,0,0,0,61,84.21,72.48,72.48,0,0,0,40.76,68.7a50.2,50.2,0,0,0-24.25-5.37A19.75,19.75,0,0,0,5.72,65.88,13.71,13.71,0,0,0,0,75.34a12.93,12.93,0,0,1,10-9.75,41.2,41.2,0,0,1,16.2,1.2,55.41,55.41,0,0,1,22.16,11.9A82.05,82.05,0,0,1,65.39,98.63,23.78,23.78,0,0,0,73.13,108a13.58,13.58,0,0,0,7.58.27A41.88,41.88,0,0,1,93.49,110a14.29,14.29,0,0,1,5.81,2.84c-.75.66-2,1.33-2.42,1.7a26.26,26.26,0,0,0-3.21,2.93A9.64,9.64,0,0,0,90.86,126c1.15,5.94,6.94,10,11.08,14a95,95,0,0,1,15.89,21q3.54,5.85,6.65,11.92a40.71,40.71,0,0,0,6.64,10.53c4.44,4.43,14.16,10.51,18.93,3.13a24.24,24.24,0,0,0,2.86-10.79,69.55,69.55,0,0,1,.75-9.78c1.15-1.15,8.86,5.08,10.08,9.64a5.75,5.75,0,0,0,3.06-1,15.37,15.37,0,0,1,8-1.93,19.62,19.62,0,0,1,7.13,1.46h0c4.43,1.22,11.09,1.15,12.74-4.21Z"/>
        <path id="路径_16178" data-name="路径 16178" class="cls-20" d="M194.72,169.74a44.55,44.55,0,0,1-15.22,25.47,34,34,0,0,1-15.31,6.45,52.22,52.22,0,0,1-8.47.69,31.28,31.28,0,0,0-6.49,0h-.4a15.11,15.11,0,0,0-4.43,4,35.23,35.23,0,0,1-5.56,5.08,22.48,22.48,0,0,1-9,3.56A31.63,31.63,0,0,1,106,209.67a38.8,38.8,0,0,0,23.31-.46,20.28,20.28,0,0,0,5.23-2.75,32.17,32.17,0,0,0,4.43-4.68,17.73,17.73,0,0,1,7.94-6.64,26.14,26.14,0,0,1,7.06-.51,55.85,55.85,0,0,0,12.83-1.24,39.85,39.85,0,0,0,20.92-14C190.24,176.12,192.61,172.85,194.72,169.74Z"/>
        <path id="路径_16179" data-name="路径 16179" class="cls-21" d="M146.43,135.18A3.68,3.68,0,0,0,145,132a19.75,19.75,0,0,0-5.2-2.22,39.88,39.88,0,0,1-6-2.37,9.72,9.72,0,0,1-5.94-8.69,8.37,8.37,0,0,1,1.58-5.09,10.45,10.45,0,0,1,4.61-3.51,17.78,17.78,0,0,1,7-1.22,15.88,15.88,0,0,1,6.65,1.36,10.67,10.67,0,0,1,4.56,4,10.1,10.1,0,0,1,1.44,5.41h-7.18a4.72,4.72,0,0,0-1.51-3.77,6.33,6.33,0,0,0-4.25-1.35,6.65,6.65,0,0,0-4,1.11,3.53,3.53,0,0,0-1.46,2.95,3.35,3.35,0,0,0,1.71,2.86,18.77,18.77,0,0,0,5.07,2.21,22.09,22.09,0,0,1,8.86,4.61,9.09,9.09,0,0,1,2.93,6.89,8.41,8.41,0,0,1-3.46,7.16,15,15,0,0,1-9.24,2.57,17.74,17.74,0,0,1-7.55-1.31,11.66,11.66,0,0,1-5.08-4,10.49,10.49,0,0,1-1.76-6H134q0,5.82,6.95,5.81a6.77,6.77,0,0,0,4-1A3.35,3.35,0,0,0,146.43,135.18Z"/>
        <path id="路径_16180" data-name="路径 16180" class="cls-21" d="M157.67,144.46V109.38h10.75a16.27,16.27,0,0,1,8.24,2.08,14.42,14.42,0,0,1,5.77,6,18.49,18.49,0,0,1,2.06,8.73v1.58a18.33,18.33,0,0,1-2,8.71,14.41,14.41,0,0,1-5.72,5.91,16.49,16.49,0,0,1-8.25,2.22H157.66Zm7.16-29.23v23.38h3.59a7.9,7.9,0,0,0,6.46-2.77,12.54,12.54,0,0,0,2.22-8v-1.77a12.83,12.83,0,0,0-2.21-8,7.91,7.91,0,0,0-6.47-2.73h-3.59Z"/>
        <path id="路径_16181" data-name="路径 16181" class="cls-21" d="M216.44,140a12.61,12.61,0,0,1-5.52,3.61,23,23,0,0,1-7.93,1.26,15.61,15.61,0,0,1-8-2,13.52,13.52,0,0,1-5.27-5.76,20.3,20.3,0,0,1-1.91-8.87v-2.41a21.35,21.35,0,0,1,1.8-9.09,13,13,0,0,1,5.12-5.87,16.79,16.79,0,0,1,17.73.91,12.74,12.74,0,0,1,4,8.64h-6.91A7.08,7.08,0,0,0,207.3,116a6.79,6.79,0,0,0-4.43-1.37,6.35,6.35,0,0,0-5.65,2.79,14.35,14.35,0,0,0-1.95,8.22v2.21a13.88,13.88,0,0,0,2.21,8.36,7.24,7.24,0,0,0,6.16,2.81,7.92,7.92,0,0,0,5.72-1.67v-6h-6.64V126h13.65Z"/>
        <path id="路径_16182" data-name="路径 16182" class="cls-21" d="M235.19,137.21a2.23,2.23,0,0,0-1.26-2,14.49,14.49,0,0,0-4-1.31q-9.28-2-9.29-7.93a7.19,7.19,0,0,1,2.86-5.81,11.61,11.61,0,0,1,7.51-2.22,12.65,12.65,0,0,1,7.94,2.35,7.27,7.27,0,0,1,3,6h-7a3.32,3.32,0,0,0-1-2.55,4.43,4.43,0,0,0-5.58,0,2.49,2.49,0,0,0-1,2,2.07,2.07,0,0,0,1,1.93,11.36,11.36,0,0,0,3.68,1.24,29.14,29.14,0,0,1,4.43,1.16,7.16,7.16,0,0,1,5.52,7,6.67,6.67,0,0,1-3,5.76,13.3,13.3,0,0,1-8,2.21,14.08,14.08,0,0,1-5.76-1.44,9.86,9.86,0,0,1-4-3.21,7.35,7.35,0,0,1-1.41-4.43h6.64a3.58,3.58,0,0,0,1.41,2.85,5.33,5.33,0,0,0,3.41,1,5.13,5.13,0,0,0,3-.75A2.37,2.37,0,0,0,235.19,137.21Z"/>
        <path id="路径_16183" data-name="路径 16183" class="cls-21" d="M110,77h-7.14V97H100V77H92.87V74.65H110Z"/>
        <path id="路径_16184" data-name="路径 16184" class="cls-21" d="M124.32,91.05H115l-2.22,5.8h-2.86l8.49-22.17H121l8.49,22.17h-3.07Zm-8.43-2.41h7.56l-4-10.4Z"/>
        <path id="路径_16185" data-name="路径 16185" class="cls-21" d="M136.4,96.84h-3V74.68h3Z"/>
        <path id="路径_16186" data-name="路径 16186" class="cls-21" d="M147.39,89.86l.44,2.92.64-2.61,4.43-15.51h2.4l4.27,15.51.6,2.7.69-3,3.46-15.2h2.92l-5.47,22.14H159l-4.57-16.2-.35-1.71-.35,1.71L149,96.84h-2.68L141,74.68h3.1Z"/>
        <path id="路径_16187" data-name="路径 16187" class="cls-21" d="M182.69,91.05H173.4l-2.21,5.8h-2.91l8.45-22.17h2.58l8.49,22.17h-3.12Zm-8.43-2.41h7.55l-4-10.4Z"/>
        <path id="路径_16188" data-name="路径 16188" class="cls-21" d="M208,96.84h-3L194,79.73V96.84h-3V74.68h2.93L205.09,92V74.66H208V96.82Z"/>
      </g>
    </g>
  </g>
</svg>
