<svg xmlns="http://www.w3.org/2000/svg" xmlns:xlink="http://www.w3.org/1999/xlink" width="268.03" height="281.55" viewBox="0 0 268.03 281.55">
  <defs>
    <style>
      .cls-1 {
        fill: #029087;
      }

      .cls-2 {
        fill: url(#未命名漸層_5);
      }

      .cls-3 {
        fill: url(#未命名漸層_8);
      }

      .cls-12, .cls-4 {
        opacity: 0.54;
      }

      .cls-4 {
        fill: url(#未命名漸層_5-2);
      }

      .cls-5 {
        fill: url(#未命名漸層_5-3);
      }

      .cls-6 {
        fill: url(#未命名漸層_5-4);
      }

      .cls-7 {
        fill: url(#未命名漸層_5-5);
      }

      .cls-8 {
        fill: url(#未命名漸層_5-6);
      }

      .cls-9 {
        fill: url(#未命名漸層_8-2);
      }

      .cls-10 {
        fill: url(#未命名漸層_5-7);
      }

      .cls-11 {
        fill: url(#未命名漸層_5-8);
      }

      .cls-13 {
        fill: url(#未命名漸層_5-9);
      }

      .cls-14 {
        fill: url(#未命名漸層_8-3);
      }
    </style>
    <linearGradient id="未命名漸層_5" data-name="未命名漸層 5" x1="42.51" y1="63.34" x2="85.06" y2="63.34" gradientUnits="userSpaceOnUse">
      <stop offset="0" stop-color="#aec889"/>
      <stop offset="1" stop-color="#6fb59a"/>
    </linearGradient>
    <linearGradient id="未命名漸層_8" data-name="未命名漸層 8" x1="27.88" y1="105.79" x2="99.69" y2="105.79" gradientUnits="userSpaceOnUse">
      <stop offset="0" stop-color="#36a2a1"/>
      <stop offset="1" stop-color="#78b79a"/>
    </linearGradient>
    <linearGradient id="未命名漸層_5-2" x1="27.88" y1="21.27" x2="99.69" y2="21.27" xlink:href="#未命名漸層_5"/>
    <linearGradient id="未命名漸層_5-3" x1="70.29" y1="63.34" x2="142.09" y2="63.34" xlink:href="#未命名漸層_5"/>
    <linearGradient id="未命名漸層_5-4" x1="196.23" y1="160.61" x2="268.03" y2="160.61" xlink:href="#未命名漸層_5"/>
    <linearGradient id="未命名漸層_5-5" x1="29.69" y1="178.12" x2="96.17" y2="178.12" xlink:href="#未命名漸層_5"/>
    <linearGradient id="未命名漸層_5-6" x1="0" y1="105.75" x2="42.55" y2="105.75" xlink:href="#未命名漸層_5"/>
    <linearGradient id="未命名漸層_8-2" x1="210.86" y1="84.52" x2="253.4" y2="127.07" xlink:href="#未命名漸層_8"/>
    <linearGradient id="未命名漸層_5-7" x1="211.27" y1="63.01" x2="253.82" y2="63.01" xlink:href="#未命名漸層_5"/>
    <linearGradient id="未命名漸層_5-8" x1="176.33" y1="219.52" x2="236.49" y2="219.52" xlink:href="#未命名漸層_5"/>
    <linearGradient id="未命名漸層_5-9" x1="154.78" y1="63.34" x2="226.58" y2="63.34" xlink:href="#未命名漸層_5"/>
    <linearGradient id="未命名漸層_8-3" x1="127.06" y1="63.34" x2="169.61" y2="63.34" xlink:href="#未命名漸層_8"/>
  </defs>
  <g id="圖層_2" data-name="圖層 2">
    <g id="圖層_1-2" data-name="圖層 1">
      <g>
        <g>
          <path class="cls-1" d="M25.51,258.58v-16h9.14v1.54H27.33v5.28h6.16v1.53H27.33V257H34.9v1.54Z"/>
          <path class="cls-1" d="M38.31,258.58v-16h9.12v1.54h-7.3v5.65h6.18v1.53H40.13v7.33Z"/>
          <path class="cls-1" d="M50.28,258.58v-16H59.4v1.54H52.1v5.65h6.18v1.53H52.1v7.33Z"/>
          <path class="cls-1" d="M67.85,258.86A6,6,0,0,1,63,256.6a9.27,9.27,0,0,1-1.9-6.11,9,9,0,0,1,1.9-6,6,6,0,0,1,4.87-2.21,6.09,6.09,0,0,1,4.89,2.21,9,9,0,0,1,1.9,6,9.27,9.27,0,0,1-1.9,6.11A6,6,0,0,1,67.85,258.86Zm-3.57-3.44a4.38,4.38,0,0,0,7.14,0,8.16,8.16,0,0,0,1.35-4.93,7.94,7.94,0,0,0-1.34-4.86,4.48,4.48,0,0,0-7.16,0,7.91,7.91,0,0,0-1.34,4.85A8.16,8.16,0,0,0,64.28,255.42Z"/>
          <path class="cls-1" d="M78.16,258.58v-16h4.91q5.55,0,5.55,4.45a4.41,4.41,0,0,1-1,3,4.92,4.92,0,0,1-2.72,1.49L89,258.58H87l-4-6.93H80v6.93ZM80,250.16h2.81q4,0,4-3.18a2.64,2.64,0,0,0-1-2.32,5.37,5.37,0,0,0-3-.66H80Z"/>
          <path class="cls-1" d="M94.93,258.58V244.07H90v-1.54h11.64v1.54H96.77v14.51Z"/>
          <path class="cls-1" d="M108,258.86a7.33,7.33,0,0,1-5.57-2.39l1.1-1.25a6.11,6.11,0,0,0,2,1.49,5.69,5.69,0,0,0,2.45.55,4,4,0,0,0,2.58-.76,2.62,2.62,0,0,0,.16-3.89,8.17,8.17,0,0,0-2-1.07l-2.32-1c-2.18-.94-3.27-2.29-3.27-4.08a3.77,3.77,0,0,1,1.4-3,5.33,5.33,0,0,1,3.56-1.18,6.61,6.61,0,0,1,2.65.54,6.41,6.41,0,0,1,2,1.43l-1,1.16a5.2,5.2,0,0,0-3.7-1.53,3.59,3.59,0,0,0-2.26.66,2.18,2.18,0,0,0-.86,1.79,2.25,2.25,0,0,0,.88,1.8,7.09,7.09,0,0,0,1.8,1l2.32,1a6.85,6.85,0,0,1,2.37,1.56,4,4,0,0,1,1,2.74,4.1,4.1,0,0,1-1.44,3.2A5.89,5.89,0,0,1,108,258.86Z"/>
          <path class="cls-1" d="M129.33,257.62l-.39,1.15a8.29,8.29,0,0,1-2.52-1.27,4.69,4.69,0,0,1-3.21,1.27,3.27,3.27,0,0,1-2.73-1.2,2.93,2.93,0,0,1-.63-1.87,3.6,3.6,0,0,1,1.67-2.84l.5-.37a5.7,5.7,0,0,1-.73-2.58,2.53,2.53,0,0,1,2.56-2.63,2,2,0,0,1,1.93,1.08,2.37,2.37,0,0,1,.25,1.12,3.38,3.38,0,0,1-1.47,2.5l-1,.78a13,13,0,0,0,2.8,3.13,9.36,9.36,0,0,0,1.58-3.28h1.27a12.39,12.39,0,0,1-1.93,4A6.52,6.52,0,0,0,129.33,257.62Zm-8.14-2a1.86,1.86,0,0,0,1,1.73,2.33,2.33,0,0,0,1.23.32,3.32,3.32,0,0,0,2.12-.9,16.72,16.72,0,0,1-2.92-3.3,3.14,3.14,0,0,0-1.37,2A1.37,1.37,0,0,0,121.19,255.62Zm1.3-5.74a4.69,4.69,0,0,0,.53,2,5.35,5.35,0,0,0,1.66-1.49,1.71,1.71,0,0,0,.23-.84c0-.63-.23-1-.69-1.16a1.15,1.15,0,0,0-.37-.06,1.23,1.23,0,0,0-1.21.81A1.94,1.94,0,0,0,122.49,249.88Z"/>
          <path class="cls-1" d="M33.81,281.25l-1-3.75H28l-.94,3.75h-4l5.05-16.31h4.69l5.07,16.31Zm-5-6.76h3.34l-.36-1.4c-.16-.58-.39-1.52-.69-2.8-.27-1.11-.47-1.93-.6-2.44h-.08q-.43,1.95-1.27,5.24Z"/>
          <path class="cls-1" d="M46.52,281.55A7.24,7.24,0,0,1,41,279.28a8.64,8.64,0,0,1-2.12-6.1,8.48,8.48,0,0,1,2.61-6.57,7.44,7.44,0,0,1,5.18-2,6.7,6.7,0,0,1,4.88,2.05l.07.07-2.06,2.5A4.25,4.25,0,0,0,46.72,268a3.39,3.39,0,0,0-3,1.69,6.18,6.18,0,0,0-.87,3.38c0,2.24.62,3.78,1.88,4.6a3.43,3.43,0,0,0,1.9.54,4.28,4.28,0,0,0,3.11-1.5l2,2.46A6.75,6.75,0,0,1,46.52,281.55Z"/>
          <path class="cls-1" d="M54.23,281.25V264.94h3.92v6.21h5.37v-6.21h3.87v16.31H63.52v-6.7H58.15v6.7Z"/>
          <path class="cls-1" d="M71.18,281.25V264.94H75.1v16.31Z"/>
          <path class="cls-1" d="M78.84,281.25V264.94H89.18v3.25H82.76v3h5.46v3.3H82.76V278h6.68v3.3Z"/>
          <path class="cls-1" d="M95.45,281.25l-4.88-16.31h4.14l1.86,7.43c.17.6.38,1.47.64,2.63s.48,2,.64,2.59H98c.16-.59.36-1.44.62-2.57s.48-2.07.64-2.65l1.84-7.43h4l-4.92,16.31Z"/>
          <path class="cls-1" d="M106.73,281.25V264.94h10.34v3.25h-6.42v3h5.46v3.3h-5.46V278h6.68v3.3Z"/>
          <path class="cls-1" d="M120.54,281.25V264.94h4.24l2.59,7,.9,3h.1c.12-.35.28-.86.48-1.55s.32-1.13.42-1.43l2.49-7H136v16.31h-3.58v-5.59q0-1.4.52-5.65h-.09l-1.37,3.9-2.18,5.95h-2.17l-2.2-5.95-1.33-3.9h-.08q.51,4.29.51,5.65v5.59Z"/>
          <path class="cls-1" d="M139.76,281.25V264.94H150.1v3.25h-6.42v3h5.46v3.3h-5.46V278h6.68v3.3Z"/>
          <path class="cls-1" d="M153.57,281.25V264.94h4l4.07,7.81,1.6,3.62h.11a58,58,0,0,1-.54-6v-5.39h3.73v16.31h-4l-4-7.88-1.58-3.57h-.11q0,.46.15,1.5a44.83,44.83,0,0,1,.34,4.53v5.42Z"/>
          <path class="cls-1" d="M173.47,281.25V268.19h-4.41v-3.25h12.76v3.25h-4.43v13.06Z"/>
          <path class="cls-1" d="M187.75,281.55a7.56,7.56,0,0,1-4.05-1.22,4.88,4.88,0,0,1-.74-.54l1.71-2.42a5.32,5.32,0,0,0,3.17,1.31c1,0,1.46-.34,1.47-1,0-.39-.39-.75-1.17-1.07-.15-.08-.4-.18-.75-.33l-.56-.21q-3-1.2-3.23-3.25a3,3,0,0,1,0-.41,3.52,3.52,0,0,1,1.86-3.23,5.79,5.79,0,0,1,3-.73,7.49,7.49,0,0,1,4.46,1.61l-1.74,2.31a4.77,4.77,0,0,0-2.59-1.05q-1.31,0-1.32.9c0,.38.36.72,1.09,1,.17.08.44.17.81.3l.54.2a5.16,5.16,0,0,1,2.91,2.16,3.43,3.43,0,0,1,.36,1.58A3.56,3.56,0,0,1,191,280.8,6.51,6.51,0,0,1,187.75,281.55Z"/>
        </g>
        <path class="cls-1" d="M165.53,109.22s-1.1-6.14-6.63-3c0,0-2.59,1.12-3.7,5.13,0,0-2,2.87-6.93,2.75a4,4,0,0,0-2.33,1.26s-3.42-.91-8.44,9.56c0,0-2.85,1-1.26,3.28,0,0,1.31,1.57-5.64,7.11,0,0-.75,0-.71,1.21,0,0-1.52-.39-2.71,4.94a3.64,3.64,0,0,1-1.43,2,5,5,0,0,0-.92,2.39s-1.49.49-2.4,3.17c0,0-.06,1.62-.68,1.93,0,0-1.26-.24-.89,3.12,0,0,0,1-3,4.67a.77.77,0,0,0,.16,1,4.73,4.73,0,0,0-1.42,2.41s-1-.56-1.55,2.11c0,0-3.7,5.28-3.15,6.73a5.32,5.32,0,0,0-3.19,5.41s-3.38,3.65-1.44,5.49c0,0,1.07,8.63.72,9.53A4.92,4.92,0,0,0,106.9,195s-1.75.36-1.37,3.87c0,0-.79,2.38-.26,3.39a1.84,1.84,0,0,0-.52,2.82s4.13,3.38,4.59,5.71c0,0,2.14,7.28,3.57,8.85a3.7,3.7,0,0,1,.35,2.49s-.34,1.33,1.58,2.29a3.1,3.1,0,0,1,.84,2.47s.06,1.62,1.28.84c0,0,1.73,2.58,3.71,1.93,0,0,.94,1.73,2.17,1.09,0,0-2.19,1.85,1.18,1.28,0,0,5.53,3.93,5.8,4.5a2.83,2.83,0,0,0,1.5,3.33s1.69,5.38,1.38,7.16-.91,2.53.49,3.21c0,0,.09,5.89,2.71,2.26,0,0,.58-1.34,3.17,1.07,0,0,.92,1,1.53.53,0,0,1.36-.49-.32-1.9s-.57-1.89-.57-1.89,2-.51,2.13-3.61c0,0-.08-5.73-.39-7.48s-1-2.76.77-6.5a5.85,5.85,0,0,1,.51-3.4c.82-1.36,3.58-8.51,3.58-8.51s1.08-1.51,2.2-1.55a4.34,4.34,0,0,0,1.8-2.27,1.9,1.9,0,0,0,1.72-1.24c.32-1.18-.62-3.21,1-3.85s3.69-5.58,3.69-5.58a3.47,3.47,0,0,0,1-2.83,5,5,0,0,1,2.28-3s0-4.26.55-5.46,2.14-3.46,2-6.1c0,0,.43-2.08,1-3.86a9.49,9.49,0,0,0,.24-3.83,65.06,65.06,0,0,1,1.71-8.45c.91-2.67-.12-3.23.8-5.61s-.94-1.88,1.69-5.5a3.38,3.38,0,0,0-1-2.47c-1-.85,1.06-1.8,1.26-3.43s-.23-2.93,2.83-4.8c0,0,1.62-.21,1.65-6.68,0,0,1.29-2.54,1.9-2.86s1.47-.94.3-2.22c0,0,2.81-2.16-.07-5.29,0,0-.65-4.39-1.72-6.11,0,0,1.36-7.7,5.71-8.88,0,0,1.24,0,.94-1.65,0,0,.08-1.18-2.28-.66,0,0-1,0-1-1.87,0,0,.89-3.27-2-2.88a4.89,4.89,0,0,1-3.65-.31,9.06,9.06,0,0,0-3.14-.33C166.48,111.39,168.76,108.51,165.53,109.22Z"/>
        <path class="cls-2" d="M57.18,92.63a6.61,6.61,0,0,1,2.49-5.17V84.61H42.51V67.45h2.85a6.6,6.6,0,1,0,.08-8.33H42.51v-17H59.67V39.22A6.61,6.61,0,1,1,68,39.14v2.93H85.06v17h-3a6.62,6.62,0,1,0,.08,8.33h2.88v17.2H68v2.93a6.61,6.61,0,1,1-10.82,5.09Z"/>
        <path class="cls-3" d="M93.08,112.4a6.58,6.58,0,0,1-5.17-2.49H85.06v17.16H67.9v-2.85a6.6,6.6,0,1,0-8.33-.08v2.93H42.51V109.91H39.66a6.61,6.61,0,1,1-.08-8.34h2.93v-17h17v3a6.62,6.62,0,1,0,8.33-.08V84.52H85.06v17H88a6.61,6.61,0,1,1,5.09,10.83Z"/>
        <path class="cls-4" d="M93.08,14.66a6.59,6.59,0,0,0-5.17,2.5H85.06V0H67.9V2.85a6.6,6.6,0,1,1-8.33.08V0H42.51V17.16H39.66a6.6,6.6,0,1,0-.08,8.33h2.93V42.55h17v-3a6.62,6.62,0,1,1,8.33.08v2.89H85.06V25.49H88a6.61,6.61,0,1,0,5.09-10.83Z"/>
        <path class="cls-5" d="M76.9,70a6.62,6.62,0,0,0,5.17-2.49h2.85V84.61h17.16V81.77a6.6,6.6,0,1,1,8.33-.08v2.92h17.06V67.46h2.85a6.6,6.6,0,1,0,.07-8.34h-2.92v-17h-17v3a6.61,6.61,0,1,1-8.34-.08V42.07H84.92v17H82A6.61,6.61,0,1,0,76.9,70Z"/>
        <path class="cls-6" d="M261.42,154a6.59,6.59,0,0,0-5.17,2.49H253.4V139.33H236.24v2.85a6.6,6.6,0,1,1-8.33.08v-2.93h-17v17.16H208a6.61,6.61,0,1,0-.08,8.33h2.93v17.06h17v-3a6.61,6.61,0,1,1,8.33.08v2.88h17.2V164.82h2.93A6.61,6.61,0,1,0,261.42,154Z"/>
        <path class="cls-7" d="M86.8,159.91a6.61,6.61,0,0,0-3.66,4.42l-2.59,1.19-7.15-15.6-15.6,7.15L59,159.66a6.61,6.61,0,1,1-7.54,3.55l-1.22-2.67-15.51,7.11,7.16,15.6-2.6,1.19a6.61,6.61,0,1,0,3.4,7.6l2.67-1.22,7.11,15.51,15.46-7.09-1.24-2.69a6.61,6.61,0,1,1,7.61-3.4l1.2,2.62,15.64-7.17L84,173.09l2.67-1.22a6.61,6.61,0,1,0,.11-12Z"/>
        <path class="cls-8" d="M14.66,76.45a6.59,6.59,0,0,0,2.5,5.17v2.85H0v17.16H2.85A6.61,6.61,0,1,1,2.93,110H0V127H17.16v2.85a6.6,6.6,0,1,0,8.33.08V127H42.55V110h-3a6.62,6.62,0,1,1,.08-8.33h2.89V84.47H25.49V81.54a6.61,6.61,0,1,0-10.83-5.09Z"/>
        <path class="cls-9" d="M261.42,99.18a6.6,6.6,0,0,0-5.17,2.5H253.4V84.52H236.24v2.85a6.6,6.6,0,1,1-8.33.08V84.52h-17v17.16H208a6.6,6.6,0,1,0-.08,8.33h2.93v17.06h17v-3a6.61,6.61,0,1,1,8.33.08v2.89h17.2V110h2.93a6.61,6.61,0,1,0,5.09-10.83Z"/>
        <path class="cls-10" d="M239.15,92.3a6.59,6.59,0,0,0-2.49-5.17V84.28h17.16V67.12H251a6.6,6.6,0,1,1-.08-8.33h2.93V41.73H236.66V38.88a6.6,6.6,0,1,0-8.34-.07v2.92h-17v17h3a6.61,6.61,0,1,1-.08,8.34h-2.88v17.2h17v2.93a6.61,6.61,0,1,0,10.83,5.09Z"/>
        <path class="cls-11" d="M180.76,203.9a6.58,6.58,0,0,0,5.45,1.8l2,2L176.33,220,188.66,232l2-2a6.61,6.61,0,1,1,6.05,5.74l-2,2.1,12.26,11.86,11.93-12.33,2,2a6.61,6.61,0,1,0,5.85-5.94l-2.11-2L236.49,219l-12.22-11.83-2.06,2.13a6.62,6.62,0,1,1-5.94-5.85l2-2.07-12.37-12L194.05,201.7l-2.1-2a6.61,6.61,0,1,0-11.19,4.24Z"/>
        <g class="cls-12">
          <path class="cls-13" d="M161.39,70a6.62,6.62,0,0,0,5.17-2.49h2.85V84.61h17.16V81.77a6.6,6.6,0,1,1,8.33-.08v2.92h17V67.46h2.85a6.61,6.61,0,1,0,.08-8.34H212v-17h-17v3a6.61,6.61,0,1,1-8.33-.08V42.07h-17.2v17h-2.93A6.61,6.61,0,1,0,161.39,70Z"/>
        </g>
        <path class="cls-14" d="M155,34.05a6.6,6.6,0,0,1-2.5,5.17v2.85h17.16V59.23h-2.85a6.6,6.6,0,1,0-.08,8.33h2.93v17H152.45v2.85a6.6,6.6,0,1,1-8.33.08V84.61H127.06v-17h3a6.61,6.61,0,1,0-.08-8.33h-2.89V42.07h17.06V39.14A6.61,6.61,0,1,1,155,34.05Z"/>
      </g>
    </g>
  </g>
</svg>
