<svg xmlns="http://www.w3.org/2000/svg" width="711" height="426" viewBox="0 0 711 426">
  <g id="local_bg" transform="translate(-8.638 -1.139)">
    <g id="组_6067" data-name="组 6067">
      <rect id="矩形_372" data-name="矩形 372" width="711" height="426" transform="translate(8.638 1.139)" fill="#49b4e5"/>
      <g id="组_6066" data-name="组 6066">
        <path id="路径_6293" data-name="路径 6293" d="M632.122,104.925c-23.71.093-47.483.022-71.116-1.266-11.743-.641-23.543-1.406-35.025-3.066-20.339-2.939-40.423-6.656-60.2-10.716-22.979-4.713-46.325-9.829-67.412-17.138-8.6-2.981-29.523-10.013-23.579-17.857,3.577-4.72,13.461-6.872,21.328-7.531,16.108-1.349,33.075.685,48.914,2.346,18.925,1.984,37.963,3.608,56.951,5.378,13.037,1.216,26.1,2.377,39.228,3.2,12.676.8,25.4,1.167,38.083,1.965,46.581,2.935,93.453,7.921,140.346,5.955V54.709c-34.927,1.228-69.687,1.769-104.685.715-54.876-1.656-108.074-10.3-162.144-15.412-27.661-2.616-55.668-4.333-83.7-3.629a826.217,826.217,0,0,0-82.36,6.722C233.607,49.793,181,59.356,126.565,61.519c-39.422,1.568-78.713-.159-117.927-2.5V69.488c17.119,4.3,36.457,4.891,54.8,4.432,21.3-.531,42.38-2.479,63.474-4.184,22.06-1.78,44.158-3.142,66.186-5.107,24.5-2.186,49.264-4.349,74.1-4.008,48.532.668,93.5,13.6,136.551,25.894,43.408,12.393,87.6,25.289,135.88,28.916,54.738,4.112,109.9,1.977,164.873,1.7,5.064-.025,10.1-.013,15.132.064V105.214C690.518,104.327,661.217,104.808,632.122,104.925Z" fill="#acebff" opacity="0.5"/>
        <path id="路径_6294" data-name="路径 6294" d="M127.975,142.17c11.415-2.757,25.265-6.014,33.421-11.818,2.958-2.1,5.019-4.9,2.637-7.544-2.827-3.137-8.471-5.365-13.981-6.5-14.935-3.074-31.954-2.229-47.409-1.43-14.91.773-30,2.416-44.995,2.287-16.1-.138-32.647-1.009-48.511-2.623l-.5-.051v42.8q11.8-.357,23.509-1.155C64.751,153.931,97.462,149.538,127.975,142.17Z" fill="#acebff" opacity="0.5"/>
        <path id="路径_6295" data-name="路径 6295" d="M507.855,164.051c9.266-4.071,21.96-4.968,33.078-5.562,14.9-.795,29.88-.695,44.808-1.208,45.2-1.555,89.227-8.126,133.9-12.068v-8.422c-23.787,1.142-47.49,2.881-71.066,5.088-22.882,2.141-45.588,5.138-68.634,6.607-59.117,3.768-118.277-.268-177.362-2.111-29.308-.915-59.117-1.645-88.351.263a618,618,0,0,0-79.31,10.759c-24.936,4.915-49.314,10.757-73.876,16.284-24.162,5.436-48.525,10.876-73.956,13.747a695.952,695.952,0,0,1-78.445,4.156v14.4c.873.032,1.746.061,2.615.093,13.832.511,27.636,1.3,41.483,1.692,9.308.264,18.384.355,27.463-1,11.616-1.734,23.056-3.883,34.612-5.753,13.161-2.132,26.661-4.357,40.305-5,6.86-.325,15.681-.629,18.84,3.8,5.139,7.191-6.728,14.675-14.715,19.085-16.229,8.967-35.779,15.833-55.05,22.156-23.734,7.79-48.257,14.717-73.087,21.155q-11.18,2.9-22.466,5.654v18.639c36.464-2.278,69.917-13.471,98.925-26.384,32.81-14.609,61.81-32.012,90.188-49.564,12.355-7.644,24.583-15.372,37.259-22.83A199.65,199.65,0,0,1,287.353,166.2a325.339,325.339,0,0,1,61.958-9.2c21.035-1.188,43.843-1.716,64.457,1.541,37.814,5.975,65.143,23.433,91.574,39.616,13.366,8.183,26.837,16.449,42.613,22.987a352.33,352.33,0,0,0,48.208,15.627c37.574,9.511,77.992,15.411,118.566,17.8q2.449.143,4.909.268V238.676c-5.11-.232-10.231-.441-15.362-.58-17.918-.486-35.909-.847-53.678-2.4-41.267-3.608-82.308-14.42-114.28-30.535-13.543-6.825-27.375-15.276-33.718-25.4C499.069,174.122,499.1,167.9,507.855,164.051Z" fill="#acebff" opacity="0.5"/>
        <path id="路径_6296" data-name="路径 6296" d="M554.087,281.841c-20.618-4.161-39.182-10.061-57.838-16.671a624.648,624.648,0,0,0-60.428-18.409,463.364,463.364,0,0,0-129.586-13.037c-70.748,3.186-129.045,29.485-185.936,52.32-28.014,11.247-56.77,22.262-88.255,29.719q-11.535,2.732-23.406,4.693v18.253c10.38-2.454,20.642-5.11,31-7.452,22.727-5.14,44.805-11.426,65.153-19.411,38.475-15.1,69.829-38.4,115.206-46.549,23.063-4.14,47.158-3.27,70.465-.241,25.085,3.261,49.335,8.631,72.843,14.74,23.254,6.041,43.851,14.876,65.277,22.851,22.389,8.334,45.791,15.309,71.787,18.482,54.629,6.669,111.361,2.026,165.689-3.359,17.876-1.772,35.712-3.717,53.583-5.51V284.991C665.571,293.4,606.8,292.475,554.087,281.841Zm-4.7,24.88c-2.043,1.838-5.714,2.717-9.192,3.171a126.736,126.736,0,0,1-21.819.523c-20.3-.921-39.793-5.138-58.032-10.373-19.936-5.722-38.779-12.663-57.5-19.675-8.043-3.015-16.009-6.441-24.529-8.952-6.648-1.959-13.334-3.891-19.7-6.167-8.612-3.081-24.731-8.931-20.066-16.33,5.015-7.952,23.954-7.175,35.04-6.016,2.7.281,5.379.631,8.054,1.01a121.58,121.58,0,0,1,14.231,1.3c17.575,2.574,34.2,7.3,50.24,12.211,14.044,4.3,28.014,8.707,41.977,13.09a272.784,272.784,0,0,1,27.283,10.412c9.75,4.248,19.607,8.8,27.456,14.326C546.619,297.922,553.532,302.989,549.383,306.721Z" fill="#acebff" opacity="0.5"/>
        <path id="路径_6297" data-name="路径 6297" d="M619.735,353.04c15.122-.816,29.975,2.323,44.762,3.642,12.468,1.113,24.706,2.3,37.295,2.921,5.809.285,12-.2,17.846.226V355.3c-20.953-1-41.889-2.169-62.828-3.2-47.836-2.352-96.676-4.42-144.541-1.162-50.979,3.468-102.056,8.249-153.494,7.9a687.021,687.021,0,0,1-76.264-4.552c-22.536-2.678-44.621-6.249-66.843-9.707-22.978-3.575-46.422-6.96-70.238-7.558a227.694,227.694,0,0,0-34.492,1.431A247.078,247.078,0,0,0,79.5,345c-23.434,6.164-46.511,13.717-70.861,17.864v7.351Q12.322,369.61,16,369c46.349-7.586,96.6-14.518,143.132-3.608,40.736,9.553,80.713,22.16,124.549,25.765,50.074,4.118,99.653-5.127,148.02-11.741,24.427-3.34,49.023-6.429,73.96-8.026a620.808,620.808,0,0,1,79.289.351c44.946,2.849,89.45,8.277,134.685,9.276v-4.36c-12.871-.612-25.72-1.782-38.39-2.752-15.055-1.15-29.495-1.866-44.158-4.317-9.262-1.548-22.147-3.346-28.611-8.012C602.312,357.127,613.4,353.382,619.735,353.04ZM364.949,379.956c-13.348,2.779-27.724,3.9-41.751,4.614a312.95,312.95,0,0,1-47.186-.928c-18.564-1.864-38.832-4.886-53.742-12.142-4.732-2.3-10.7-5.515-11.362-9.412-.562-3.335,3.05-6.516,8.651-7.121,7.252-.783,14.911.248,21.979,1.217,10.255,1.409,20.688,2.154,31.085,3.118,12.27,1.141,24.533,2.325,36.807,3.456,2.5-.088,5-.163,7.495-.207,14.939-.264,30.294-.413,45.056,1.187,6.1.662,17.454,1.866,19.253,6.3C383.45,375.5,371.636,378.563,364.949,379.956Z" fill="#acebff" opacity="0.5"/>
        <path id="路径_6298" data-name="路径 6298" d="M644.639,397.219c-18.522-.1-37.132.068-55.53,1.473-19.055,1.456-38.04,3.3-57,5.12-50.5,4.86-101.059,10.1-152.193,11.877-52.6,1.828-105.7.132-158.087-2.9q-38.72-2.242-77.208-5.679c-24.385-2.177-48.565-5.256-73.031-7.08a513.723,513.723,0,0,0-62.948-1.2v28.307h711V397.4C694.692,398.1,669.6,397.351,644.639,397.219Z" fill="#acebff" opacity="0.5"/>
      </g>
    </g>
  </g>
</svg>
